<svg class="icon" viewBox="0 0 1024 1024" xmlns="http://www.w3.org/2000/svg" width="200" height="200"><defs><style/></defs><path d="M469.355 625.769h469.31a42.668 42.668 0 010 85.335h-469.31a42.668 42.668 0 010-85.335zM56.295 483.532l162.821-172.593a21.328 21.328 0 0136.855 14.635v374.683a21.328 21.328 0 01-36.855 14.634L56.284 542.116a42.668 42.668 0 01.034-58.584zm413.06-170.648h469.31a42.668 42.668 0 010 85.336h-469.31a42.668 42.668 0 010-85.336zM42.668 938.664H981.32a42.668 42.668 0 110 85.336H42.668a42.668 42.668 0 010-85.335zM42.668 0H981.32a42.668 42.668 0 110 85.335H42.668a42.668 42.668 0 010-85.335z"/></svg>