<svg class="icon" viewBox="0 0 1024 1024" xmlns="http://www.w3.org/2000/svg" width="200" height="200"><defs><style/></defs><path d="M373.714 202.171c-.914-7.542-10.171-10.742-15.543-5.371l-49.942 49.943-152.8-152.686a9.177 9.177 0 00-12.915 0L94.057 142.4a9.177 9.177 0 000 12.914l152.8 152.8-50.171 50.172a9.154 9.154 0 005.371 15.543l183.086 21.6c5.828.685 10.857-4.229 10.171-10.172l-21.6-183.086zm11.543 426.515l-183.2 21.6c-7.543.914-10.743 10.171-5.371 15.543L246.857 716l-152.8 152.571a9.177 9.177 0 000 12.915l48.457 48.343c3.543 3.542 9.372 3.542 12.915 0l152.8-152.686 49.942 49.943a9.154 9.154 0 0015.543-5.372l21.6-182.971c.686-5.829-4.228-10.743-10.057-10.057zm253.486-233.372l183.2-21.6c7.543-.914 10.743-10.171 5.371-15.543l-50.171-50.057 152.8-152.685c3.543-3.543 3.543-9.372 0-12.915l-48.457-48.343a9.177 9.177 0 00-12.915 0l-152.8 152.572L665.83 196.8a9.154 9.154 0 00-15.543 5.371l-21.6 182.972c-.686 5.943 4.228 10.857 10.057 10.171zm138.4 320.572l50.171-50.172a9.154 9.154 0 00-5.371-15.543l-183.086-21.6c-5.828-.685-10.857 4.229-10.171 10.172l21.6 183.086c.914 7.542 10.171 10.742 15.543 5.371l49.942-49.943 152.8 152.686c3.543 3.543 9.372 3.543 12.915 0l48.457-48.343c3.543-3.543 3.543-9.371 0-12.914l-152.8-152.8z"/></svg>