<svg class="icon" viewBox="0 0 1024 1024" xmlns="http://www.w3.org/2000/svg" width="200" height="200"><defs><style/></defs><path d="M258.286 197.029l50.171-50.172a9.154 9.154 0 00-5.371-15.543L120 109.714c-5.829-.685-10.857 4.229-10.171 10.172l21.6 183.085c.914 7.543 10.171 10.743 15.542 5.372l49.943-49.943 152.8 152.686c3.543 3.543 9.372 3.543 12.915 0l48.457-48.343c3.543-3.543 3.543-9.372 0-12.914l-152.8-152.8zM661.37 411.086c3.543 3.543 9.372 3.543 12.915 0l152.8-152.686 49.943 49.943a9.154 9.154 0 0015.542-5.372L914.171 120c.686-5.829-4.228-10.857-10.171-10.171l-183.086 21.6c-7.543.914-10.743 10.171-5.371 15.542l50.171 50.172-152.8 152.571a9.177 9.177 0 000 12.915l48.457 48.457zm231.2 309.943c-.914-7.543-10.171-10.743-15.542-5.372L827.086 765.6l-152.8-152.686a9.177 9.177 0 00-12.915 0l-48.457 48.343a9.177 9.177 0 000 12.914l152.8 152.8-50.171 50.172a9.154 9.154 0 005.371 15.543L904 914.286c5.829.685 10.857-4.229 10.171-10.172l-21.6-183.085zM362.63 612.914a9.177 9.177 0 00-12.915 0L196.914 765.6l-49.943-49.943a9.154 9.154 0 00-15.542 5.372L109.829 904c-.686 5.829 4.228 10.857 10.171 10.171l183.086-21.6c7.543-.914 10.743-10.171 5.371-15.542l-50.171-50.058 152.8-152.685c3.543-3.543 3.543-9.372 0-12.915l-48.457-48.457z"/></svg>