<svg class="icon" viewBox="0 0 1024 1024" xmlns="http://www.w3.org/2000/svg" width="200" height="200"><defs><style/></defs><path d="M554.646 625.783H85.343a42.663 42.663 0 000 85.337h469.303a42.663 42.663 0 000-85.337zm413.04-142.252L804.863 310.96a21.337 21.337 0 00-36.857 14.617V700.24a21.337 21.337 0 0036.857 14.629L967.697 542.08a42.663 42.663 0 00-.011-58.549zm-413.04-170.64H85.343a42.663 42.663 0 000 85.338h469.303a42.663 42.663 0 000-85.338zm426.697 625.772H42.669a42.663 42.663 0 000 85.337h938.674a42.663 42.663 0 000-85.337zm0-938.663H42.669a42.663 42.663 0 000 85.337h938.674a42.663 42.663 0 000-85.337z"/></svg>